<svg width="50" height="40" viewBox="0 0 50 40" fill="none" xmlns="http://www.w3.org/2000/svg">
<path d="M45.6055 0.957031H4.39453C1.97441 0.957031 0 2.9293 0 5.35156V34.6484C0 37.0625 1.96563 39.043 4.39453 39.043H45.6055C48.0195 39.043 50 37.0773 50 34.6484V5.35156C50 2.9375 48.0344 0.957031 45.6055 0.957031ZM44.9986 3.88672L25.0932 23.7923L5.01553 3.88672H44.9986ZM2.92969 34.0418V5.94424L17.039 19.9325L2.92969 34.0418ZM5.00127 36.1133L19.1194 21.9951L24.0664 26.8996C24.6391 27.4674 25.5632 27.4655 26.1335 26.8951L30.957 22.0716L44.9987 36.1133H5.00127ZM47.0703 34.0417L33.0286 20L47.0703 5.9582V34.0417Z" fill="#D3D6DD"/>
</svg>
