<svg width="25" height="25" viewBox="0 0 25 25" fill="none" xmlns="http://www.w3.org/2000/svg">
<path d="M23.716 9.0997L11.0107 21.664C8.9055 23.746 5.49199 23.746 3.3868 21.664C1.2816 19.582 1.2816 16.2069 3.3868 14.1249L14.8222 2.81712C16.226 1.4294 18.5008 1.4294 19.9046 2.81712C21.3083 4.20481 21.3083 6.45551 19.9046 7.8432L8.4691 19.151C7.76767 19.8453 6.62983 19.8453 5.9275 19.151C5.22607 18.4576 5.22607 17.3323 5.9275 16.6379L16.0921 6.58666L14.8213 5.33016L4.65762 15.3823C3.25385 16.77 3.25385 19.0207 4.65762 20.4084C6.06138 21.7961 8.33616 21.7961 9.73992 20.4084L21.1754 9.10059C23.2806 7.01862 23.2806 3.6435 21.1754 1.56148C19.0702 -0.520494 15.6567 -0.520494 13.5515 1.56148L1.4806 13.4975L1.52435 13.5412C-0.668333 16.3291 -0.475571 20.3593 2.11602 22.9214C4.7076 25.4835 8.78146 25.6754 11.6015 23.5059L11.6452 23.5496L24.986 10.3571L23.716 9.0997Z" fill="#D3D6DD"/>
</svg>
